<?xml version="1.0" encoding="utf-8"?>
<svg version="1.1" id="HEG_x5F_icons" xmlns="http://www.w3.org/2000/svg" xmlns:xlink="http://www.w3.org/1999/xlink" x="0px"
	 y="0px" viewBox="0 0 720 720" style="enable-background:new 0 0 720 720;" xml:space="preserve">
<g id="close-x">
	<polygon points="621.2,141.2 578.8,98.8 360,317.6 141.2,98.8 98.8,141.2 317.6,360 98.8,578.8 141.2,621.2 360,402.4 578.8,621.2
		621.2,578.8 402.4,360 	"/>
</g>
<g id="arrow-right">
	<polygon points="261.2,98.8 218.8,141.2 437.6,360 218.8,578.8 261.2,621.2 522.4,360 	"/>
</g>
<g id="arrow-left">
	<polygon style="transform: rotate(180deg); transform-origin: 50% 50%;" points="261.2,98.8 218.8,141.2 437.6,360 218.8,578.8 261.2,621.2 522.4,360 	"/>
</g>
<g id="arrow-down">
	<polygon style="transform: rotate(90deg); transform-origin: 50% 50%;" points="261.2,98.8 218.8,141.2 437.6,360 218.8,578.8 261.2,621.2 522.4,360 	"/>
</g>
<g id="arrow-up">
	<polygon style="transform: rotate(-90deg); transform-origin: 50% 50%;" points="261.2,98.8 218.8,141.2 437.6,360 218.8,578.8 261.2,621.2 522.4,360 	"/>
</g>
<g id="email">
	<path d="M0,120v480h720V120H0z M634.7,180L360,429.7L85.3,180H634.7z M60,540V197.6l300,272.7l300-272.7V540H60z"/>
</g>
<g id="search">
	<path d="M711.2,668.8L520,477.6c41.1-50.4,65.8-114.7,65.8-184.7C585.8,131.4,454.5,0,292.9,0C131.4,0,0,131.4,0,292.9
		c0,161.5,131.4,292.9,292.9,292.9c70,0,134.2-24.7,184.7-65.8l191.2,191.2L711.2,668.8z M292.9,525.8
		C164.5,525.8,60,421.3,60,292.9C60,164.5,164.5,60,292.9,60c128.4,0,232.9,104.5,232.9,232.9C525.8,421.3,421.3,525.8,292.9,525.8z
		"/>
</g>
<g id="hamburger">
	<rect y="150" width="720" height="60"/>
	<rect y="330" width="720" height="60"/>
	<rect y="510" width="720" height="60"/>
</g>
<g id="circle-checkbox-ticked">
	<path fill="lightgrey" d="M360,60c165.4,0,300,134.6,300,300S525.4,660,360,660S60,525.4,60,360S194.6,60,360,60 M360,0C161.2,0,0,161.2,0,360
		s161.2,360,360,360s360-161.2,360-360S558.8,0,360,0L360,0z"/>
	<polygon points="300.1,511.6 158.8,370.8 201.1,328 300.1,427 518.8,208.4 561.2,250.7 	"/>
</g>
<g id="circle-checkbox-unticked">
	<path fill="lightgrey" d="M360,60c165.4,0,300,134.6,300,300S525.4,660,360,660S60,525.4,60,360S194.6,60,360,60 M360,0C161.2,0,0,161.2,0,360
		s161.2,360,360,360s360-161.2,360-360S558.8,0,360,0L360,0z"/>
</g>
<g id="tick">
	<polygon points="300.1,511.6 158.8,370.8 201.1,328 300.1,427 518.8,208.4 561.2,250.7 	"/>
</g>
<g id="circle">
	<path d="M360,60c165.4,0,300,134.6,300,300S525.4,660,360,660S60,525.4,60,360S194.6,60,360,60 M360,0C161.2,0,0,161.2,0,360
		s161.2,360,360,360s360-161.2,360-360S558.8,0,360,0L360,0z"/>
</g>
<g id="circle-tick">
	<path d="M360,60c165.4,0,300,134.6,300,300S525.4,660,360,660S60,525.4,60,360S194.6,60,360,60 M360,0C161.2,0,0,161.2,0,360
		s161.2,360,360,360s360-161.2,360-360S558.8,0,360,0L360,0z"/>
	<polygon points="300.1,511.6 158.8,370.8 201.1,328 300.1,427 518.8,208.4 561.2,250.7 	"/>
</g>
<g id="circle-x">
	<polygon points="501.2,261.2 458.8,218.8 360,317.6 261.2,218.8 218.8,261.2 317.6,360 218.8,458.8 261.2,501.2 360,402.4
		458.8,501.2 501.2,458.8 402.4,360 	"/>
	<path d="M360,60c165.4,0,300,134.6,300,300S525.4,660,360,660S60,525.4,60,360S194.6,60,360,60 M360,0C161.2,0,0,161.2,0,360
		s161.2,360,360,360s360-161.2,360-360S558.8,0,360,0L360,0z"/>
</g>
<g id="circle-attention">
	<path d="M360,60c165.4,0,300,134.6,300,300S525.4,660,360,660S60,525.4,60,360S194.6,60,360,60 M360,0C161.2,0,0,161.2,0,360
		s161.2,360,360,360s360-161.2,360-360S558.8,0,360,0L360,0z"/>
	<path d="M320.6,516c0-13,3.5-22.9,10.3-29.7s16.6-10.2,29.2-10.2c12.5,0,22.1,3.5,28.8,10.5s10,16.8,10,29.3s-3.4,22.4-10.2,29.7
		s-16.3,10.9-28.6,10.9c-12.5,0-22.2-3.5-29.1-10.5S320.6,529,320.6,516z"/>
	<polygon points="383.3,431.9 337.4,431.9 323.7,163.4 396.8,163.4 	"/>
</g>

</svg>
